<svg width="529" height="68" viewBox="0 0 529 68" fill="none" xmlns="http://www.w3.org/2000/svg">
<g clip-path="url(#clip0_29495_3609)">
<path d="M38 21.9999H28.642C27.8448 21.4317 26.9489 21.0167 26 20.7759V19.9999L33.06 16.6959C33.3494 16.5165 33.5882 16.2662 33.7539 15.9687C33.9195 15.6712 34.0064 15.3364 34.0064 14.9959C34.0064 14.6554 33.9195 14.3205 33.7539 14.023C33.5882 13.7255 33.3494 13.4753 33.06 13.2959L26.66 10.2959C26.1603 10.0624 25.6097 9.95892 25.0593 9.99508C24.509 10.0312 23.9767 10.2059 23.5118 10.5027C23.047 10.7996 22.6646 11.2091 22.4003 11.6932C22.136 12.1773 21.9983 12.7203 22 13.2719V20.7759C21.0516 21.0163 20.1563 21.4314 19.36 21.9999H10C7.34881 22.0031 4.80711 23.0576 2.93244 24.9323C1.05776 26.807 0.00317571 29.3487 0 31.9999L0 51.9999C0 53.5912 0.632141 55.1173 1.75736 56.2425C2.88258 57.3677 4.4087 57.9999 6 57.9999H42C43.5913 57.9999 45.1174 57.3677 46.2426 56.2425C47.3678 55.1173 48 53.5912 48 51.9999V31.9999C47.9968 29.3487 46.9422 26.807 45.0675 24.9323C43.1929 23.0576 40.6512 22.0031 38 21.9999ZM43.632 29.9999H39.314C37.7236 29.9958 36.199 29.364 35.072 28.2419L32.828 25.9999H38C39.2365 26.005 40.4412 26.392 41.4494 27.1081C42.4575 27.8241 43.2198 28.8341 43.632 29.9999ZM10 25.9999H15.172L12.928 28.2419C11.8009 29.364 10.2764 29.9958 8.686 29.9999H4.368C4.78016 28.8341 5.54246 27.8241 6.5506 27.1081C7.55874 26.392 8.76347 26.005 10 25.9999ZM26 53.9999H22V47.9999C22 47.4694 22.2107 46.9607 22.5858 46.5856C22.9608 46.2106 23.4696 45.9999 24 45.9999C24.5304 45.9999 25.0391 46.2106 25.4142 46.5856C25.7893 46.9607 26 47.4694 26 47.9999V53.9999ZM42 53.9999H30V47.9999C30 46.4086 29.3678 44.8824 28.2426 43.7572C27.1174 42.632 25.5913 41.9999 24 41.9999C22.4087 41.9999 20.8826 42.632 19.7573 43.7572C18.6321 44.8824 18 46.4086 18 47.9999V53.9999H6C5.46956 53.9999 4.96086 53.7891 4.58578 53.4141C4.21071 53.039 4 52.5303 4 51.9999V33.9999H8.686C9.99963 34.0031 11.3009 33.7458 12.5144 33.2429C13.728 32.7399 14.8297 32.0014 15.756 31.0699L21.172 25.6559C21.9221 24.906 22.9393 24.4847 24 24.4847C25.0606 24.4847 26.0779 24.906 26.828 25.6559L32.244 31.0699C33.1702 32.0014 34.272 32.7399 35.4856 33.2429C36.6991 33.7458 38.0003 34.0031 39.314 33.9999H44V51.9999C44 52.5303 43.7893 53.039 43.4142 53.4141C43.0391 53.7891 42.5304 53.9999 42 53.9999ZM14 39.9999C14 40.5303 13.7893 41.039 13.4142 41.4141C13.0391 41.7892 12.5304 41.9999 12 41.9999H10C9.46956 41.9999 8.96086 41.7892 8.58578 41.4141C8.21071 41.039 8 40.5303 8 39.9999C8 39.4694 8.21071 38.9607 8.58578 38.5857C8.96086 38.2106 9.46956 37.9999 10 37.9999H12C12.5304 37.9999 13.0391 38.2106 13.4142 38.5857C13.7893 38.9607 14 39.4694 14 39.9999ZM14 47.9999C14 48.5303 13.7893 49.039 13.4142 49.4141C13.0391 49.7891 12.5304 49.9999 12 49.9999H10C9.46956 49.9999 8.96086 49.7891 8.58578 49.4141C8.21071 49.039 8 48.5303 8 47.9999C8 47.4694 8.21071 46.9607 8.58578 46.5856C8.96086 46.2106 9.46956 45.9999 10 45.9999H12C12.5304 45.9999 13.0391 46.2106 13.4142 46.5856C13.7893 46.9607 14 47.4694 14 47.9999ZM40 39.9999C40 40.5303 39.7893 41.039 39.4142 41.4141C39.0391 41.7892 38.5304 41.9999 38 41.9999H36C35.4696 41.9999 34.9608 41.7892 34.5858 41.4141C34.2107 41.039 34 40.5303 34 39.9999C34 39.4694 34.2107 38.9607 34.5858 38.5857C34.9608 38.2106 35.4696 37.9999 36 37.9999H38C38.5304 37.9999 39.0391 38.2106 39.4142 38.5857C39.7893 38.9607 40 39.4694 40 39.9999ZM40 47.9999C40 48.5303 39.7893 49.039 39.4142 49.4141C39.0391 49.7891 38.5304 49.9999 38 49.9999H36C35.4696 49.9999 34.9608 49.7891 34.5858 49.4141C34.2107 49.039 34 48.5303 34 47.9999C34 47.4694 34.2107 46.9607 34.5858 46.5856C34.9608 46.2106 35.4696 45.9999 36 45.9999H38C38.5304 45.9999 39.0391 46.2106 39.4142 46.5856C39.7893 46.9607 40 47.4694 40 47.9999ZM28 33.9999C28 34.791 27.7654 35.5644 27.3259 36.2221C26.8863 36.8799 26.2616 37.3926 25.5307 37.6954C24.7998 37.9981 23.9956 38.0774 23.2196 37.923C22.4437 37.7687 21.731 37.3877 21.1716 36.8283C20.6122 36.2689 20.2312 35.5562 20.0768 34.7802C19.9225 34.0043 20.0017 33.2 20.3045 32.4691C20.6072 31.7382 21.1199 31.1135 21.7777 30.674C22.4355 30.2345 23.2089 29.9999 24 29.9999C25.0609 29.9999 26.0783 30.4213 26.8284 31.1714C27.5786 31.9216 28 32.939 28 33.9999Z" fill="#063852"/>
</g>
<path d="M72.352 13.496V8.376H81.504V31H75.744V13.496H72.352ZM98.8303 12.216L90.7343 31H85.0703L93.2623 12.856H83.6623V8.152H98.8303V12.216ZM100.423 19.448C100.423 22.9893 101.137 25.7947 102.567 27.864C103.996 29.9333 106.279 30.968 109.415 30.968C112.529 30.968 114.801 29.9333 116.231 27.864C117.681 25.7947 118.407 22.9893 118.407 19.448C118.407 15.928 117.681 13.144 116.231 11.096C114.801 9.02667 112.529 7.992 109.415 7.992C106.279 7.992 103.996 9.02667 102.567 11.096C101.137 13.144 100.423 15.928 100.423 19.448ZM112.967 19.448C112.967 21.4747 112.721 23.0427 112.231 24.152C111.761 25.24 110.823 25.784 109.415 25.784C107.985 25.784 107.025 25.24 106.535 24.152C106.044 23.0427 105.799 21.4747 105.799 19.448C105.799 17.4427 106.044 15.896 106.535 14.808C107.025 13.72 107.985 13.176 109.415 13.176C110.823 13.176 111.761 13.72 112.231 14.808C112.721 15.8747 112.967 17.4213 112.967 19.448ZM120.697 19.448C120.697 22.9893 121.411 25.7947 122.841 27.864C124.27 29.9333 126.553 30.968 129.689 30.968C132.803 30.968 135.075 29.9333 136.505 27.864C137.955 25.7947 138.681 22.9893 138.681 19.448C138.681 15.928 137.955 13.144 136.505 11.096C135.075 9.02667 132.803 7.992 129.689 7.992C126.553 7.992 124.27 9.02667 122.841 11.096C121.411 13.144 120.697 15.928 120.697 19.448ZM133.241 19.448C133.241 21.4747 132.995 23.0427 132.505 24.152C132.035 25.24 131.097 25.784 129.689 25.784C128.259 25.784 127.299 25.24 126.809 24.152C126.318 23.0427 126.073 21.4747 126.073 19.448C126.073 17.4427 126.318 15.896 126.809 14.808C127.299 13.72 128.259 13.176 129.689 13.176C131.097 13.176 132.035 13.72 132.505 14.808C132.995 15.8747 133.241 17.4213 133.241 19.448ZM156.778 22.328H151.242V27.96H145.962V22.328H140.426V17.304H145.962V11.64H151.242V17.304H156.778V22.328Z" fill="#2374EE"/>
<path d="M78.08 59.14C77.1467 59.14 76.3067 58.98 75.56 58.66C74.8133 58.3267 74.2267 57.86 73.8 57.26C73.3733 56.66 73.16 55.96 73.16 55.16H75.6C75.6533 55.76 75.8867 56.2533 76.3 56.64C76.7267 57.0267 77.32 57.22 78.08 57.22C78.8667 57.22 79.48 57.0333 79.92 56.66C80.36 56.2733 80.58 55.78 80.58 55.18C80.58 54.7133 80.44 54.3333 80.16 54.04C79.8933 53.7467 79.5533 53.52 79.14 53.36C78.74 53.2 78.18 53.0267 77.46 52.84C76.5533 52.6 75.8133 52.36 75.24 52.12C74.68 51.8667 74.2 51.48 73.8 50.96C73.4 50.44 73.2 49.7467 73.2 48.88C73.2 48.08 73.4 47.38 73.8 46.78C74.2 46.18 74.76 45.72 75.48 45.4C76.2 45.08 77.0333 44.92 77.98 44.92C79.3267 44.92 80.4267 45.26 81.28 45.94C82.1467 46.6067 82.6267 47.5267 82.72 48.7H80.2C80.16 48.1933 79.92 47.76 79.48 47.4C79.04 47.04 78.46 46.86 77.74 46.86C77.0867 46.86 76.5533 47.0267 76.14 47.36C75.7267 47.6933 75.52 48.1733 75.52 48.8C75.52 49.2267 75.6467 49.58 75.9 49.86C76.1667 50.1267 76.5 50.34 76.9 50.5C77.3 50.66 77.8467 50.8333 78.54 51.02C79.46 51.2733 80.2067 51.5267 80.78 51.78C81.3667 52.0333 81.86 52.4267 82.26 52.96C82.6733 53.48 82.88 54.18 82.88 55.06C82.88 55.7667 82.6867 56.4333 82.3 57.06C81.9267 57.6867 81.3733 58.1933 80.64 58.58C79.92 58.9533 79.0667 59.14 78.08 59.14ZM84.7103 53.48C84.7103 52.3467 84.937 51.3533 85.3903 50.5C85.857 49.6333 86.497 48.9667 87.3103 48.5C88.1236 48.0333 89.057 47.8 90.1103 47.8C91.4436 47.8 92.5436 48.12 93.4103 48.76C94.2903 49.3867 94.8836 50.2867 95.1903 51.46H92.7303C92.5303 50.9133 92.2103 50.4867 91.7703 50.18C91.3303 49.8733 90.777 49.72 90.1103 49.72C89.177 49.72 88.4303 50.0533 87.8703 50.72C87.3236 51.3733 87.0503 52.2933 87.0503 53.48C87.0503 54.6667 87.3236 55.5933 87.8703 56.26C88.4303 56.9267 89.177 57.26 90.1103 57.26C91.4303 57.26 92.3036 56.68 92.7303 55.52H95.1903C94.8703 56.64 94.2703 57.5333 93.3903 58.2C92.5103 58.8533 91.417 59.18 90.1103 59.18C89.057 59.18 88.1236 58.9467 87.3103 58.48C86.497 58 85.857 57.3333 85.3903 56.48C84.937 55.6133 84.7103 54.6133 84.7103 53.48ZM103.062 47.8C103.902 47.8 104.649 47.98 105.302 48.34C105.969 48.7 106.489 49.2333 106.862 49.94C107.249 50.6467 107.443 51.5 107.443 52.5V59H105.182V52.84C105.182 51.8533 104.936 51.1 104.442 50.58C103.949 50.0467 103.276 49.78 102.422 49.78C101.569 49.78 100.889 50.0467 100.382 50.58C99.8892 51.1 99.6425 51.8533 99.6425 52.84V59H97.3625V44.2H99.6425V49.26C100.029 48.7933 100.516 48.4333 101.102 48.18C101.702 47.9267 102.356 47.8 103.062 47.8ZM115.031 59.18C113.991 59.18 113.051 58.9467 112.211 58.48C111.371 58 110.711 57.3333 110.231 56.48C109.751 55.6133 109.511 54.6133 109.511 53.48C109.511 52.36 109.757 51.3667 110.251 50.5C110.744 49.6333 111.417 48.9667 112.271 48.5C113.124 48.0333 114.077 47.8 115.131 47.8C116.184 47.8 117.137 48.0333 117.991 48.5C118.844 48.9667 119.517 49.6333 120.011 50.5C120.504 51.3667 120.751 52.36 120.751 53.48C120.751 54.6 120.497 55.5933 119.991 56.46C119.484 57.3267 118.791 58 117.911 58.48C117.044 58.9467 116.084 59.18 115.031 59.18ZM115.031 57.2C115.617 57.2 116.164 57.06 116.671 56.78C117.191 56.5 117.611 56.08 117.931 55.52C118.251 54.96 118.411 54.28 118.411 53.48C118.411 52.68 118.257 52.0067 117.951 51.46C117.644 50.9 117.237 50.48 116.731 50.2C116.224 49.92 115.677 49.78 115.091 49.78C114.504 49.78 113.957 49.92 113.451 50.2C112.957 50.48 112.564 50.9 112.271 51.46C111.977 52.0067 111.831 52.68 111.831 53.48C111.831 54.6667 112.131 55.5867 112.731 56.24C113.344 56.88 114.111 57.2 115.031 57.2ZM127.685 59.18C126.645 59.18 125.705 58.9467 124.865 58.48C124.025 58 123.365 57.3333 122.885 56.48C122.405 55.6133 122.165 54.6133 122.165 53.48C122.165 52.36 122.411 51.3667 122.905 50.5C123.398 49.6333 124.071 48.9667 124.925 48.5C125.778 48.0333 126.731 47.8 127.785 47.8C128.838 47.8 129.791 48.0333 130.645 48.5C131.498 48.9667 132.171 49.6333 132.665 50.5C133.158 51.3667 133.405 52.36 133.405 53.48C133.405 54.6 133.151 55.5933 132.645 56.46C132.138 57.3267 131.445 58 130.565 58.48C129.698 58.9467 128.738 59.18 127.685 59.18ZM127.685 57.2C128.271 57.2 128.818 57.06 129.325 56.78C129.845 56.5 130.265 56.08 130.585 55.52C130.905 54.96 131.065 54.28 131.065 53.48C131.065 52.68 130.911 52.0067 130.605 51.46C130.298 50.9 129.891 50.48 129.385 50.2C128.878 49.92 128.331 49.78 127.745 49.78C127.158 49.78 126.611 49.92 126.105 50.2C125.611 50.48 125.218 50.9 124.925 51.46C124.631 52.0067 124.485 52.68 124.485 53.48C124.485 54.6667 124.785 55.5867 125.385 56.24C125.998 56.88 126.765 57.2 127.685 57.2ZM137.839 44.2V59H135.559V44.2H137.839ZM144.732 59.18C143.865 59.18 143.085 59.0267 142.392 58.72C141.712 58.4 141.172 57.9733 140.772 57.44C140.372 56.8933 140.159 56.2867 140.132 55.62H142.492C142.532 56.0867 142.752 56.48 143.152 56.8C143.565 57.1067 144.079 57.26 144.692 57.26C145.332 57.26 145.825 57.14 146.172 56.9C146.532 56.6467 146.712 56.3267 146.712 55.94C146.712 55.5267 146.512 55.22 146.112 55.02C145.725 54.82 145.105 54.6 144.252 54.36C143.425 54.1333 142.752 53.9133 142.232 53.7C141.712 53.4867 141.259 53.16 140.872 52.72C140.499 52.28 140.312 51.7 140.312 50.98C140.312 50.3933 140.485 49.86 140.832 49.38C141.179 48.8867 141.672 48.5 142.312 48.22C142.965 47.94 143.712 47.8 144.552 47.8C145.805 47.8 146.812 48.12 147.572 48.76C148.345 49.3867 148.759 50.2467 148.812 51.34H146.532C146.492 50.8467 146.292 50.4533 145.932 50.16C145.572 49.8667 145.085 49.72 144.472 49.72C143.872 49.72 143.412 49.8333 143.092 50.06C142.772 50.2867 142.612 50.5867 142.612 50.96C142.612 51.2533 142.719 51.5 142.932 51.7C143.145 51.9 143.405 52.06 143.712 52.18C144.019 52.2867 144.472 52.4267 145.072 52.6C145.872 52.8133 146.525 53.0333 147.032 53.26C147.552 53.4733 147.999 53.7933 148.372 54.22C148.745 54.6467 148.939 55.2133 148.952 55.92C148.952 56.5467 148.779 57.1067 148.432 57.6C148.085 58.0933 147.592 58.48 146.952 58.76C146.325 59.04 145.585 59.18 144.732 59.18Z" fill="#063852"/>
<g clip-path="url(#clip1_29495_3609)">
<path d="M217 36C215.22 36 213.48 35.4722 212 34.4832C210.52 33.4943 209.366 32.0887 208.685 30.4442C208.004 28.7996 207.826 26.99 208.173 25.2442C208.52 23.4984 209.377 21.8947 210.636 20.636C211.895 19.3774 213.498 18.5202 215.244 18.1729C216.99 17.8257 218.8 18.0039 220.444 18.6851C222.089 19.3663 223.494 20.5198 224.483 21.9999C225.472 23.4799 226 25.22 226 27C225.997 29.3861 225.048 31.6738 223.361 33.361C221.674 35.0483 219.386 35.9974 217 36ZM217 22C216.011 22 215.044 22.2932 214.222 22.8427C213.4 23.3921 212.759 24.173 212.381 25.0866C212.002 26.0002 211.903 27.0056 212.096 27.9755C212.289 28.9454 212.765 29.8363 213.464 30.5355C214.164 31.2348 215.055 31.711 216.025 31.9039C216.994 32.0969 218 31.9978 218.913 31.6194C219.827 31.241 220.608 30.6001 221.157 29.7779C221.707 28.9556 222 27.9889 222 27C222 25.6739 221.473 24.4022 220.536 23.4645C219.598 22.5268 218.326 22 217 22ZM232 56V55C232 51.0218 230.42 47.2064 227.607 44.3934C224.794 41.5804 220.978 40 217 40C213.022 40 209.206 41.5804 206.393 44.3934C203.58 47.2064 202 51.0218 202 55V56C202 56.5304 202.211 57.0391 202.586 57.4142C202.961 57.7893 203.47 58 204 58C204.53 58 205.039 57.7893 205.414 57.4142C205.789 57.0391 206 56.5304 206 56V55C206 52.0826 207.159 49.2847 209.222 47.2218C211.285 45.1589 214.083 44 217 44C219.917 44 222.715 45.1589 224.778 47.2218C226.841 49.2847 228 52.0826 228 55V56C228 56.5304 228.211 57.0391 228.586 57.4142C228.961 57.7893 229.47 58 230 58C230.53 58 231.039 57.7893 231.414 57.4142C231.789 57.0391 232 56.5304 232 56ZM250 46C250 43.2974 249.218 40.6525 247.747 38.3847C246.277 36.1169 244.182 34.3232 241.715 33.2199C239.248 32.1167 236.514 31.7512 233.844 32.1675C231.173 32.5838 228.68 33.7641 226.666 35.566C226.468 35.7404 226.306 35.9524 226.19 36.1897C226.073 36.4271 226.006 36.6851 225.99 36.9488C225.974 37.2125 226.011 37.4768 226.097 37.7263C226.184 37.9758 226.32 38.2056 226.496 38.4024C226.672 38.5993 226.886 38.7592 227.124 38.8731C227.363 38.987 227.621 39.0525 227.885 39.0658C228.149 39.0792 228.413 39.0401 228.662 38.9509C228.91 38.8617 229.139 38.7241 229.334 38.546C230.773 37.2592 232.553 36.4164 234.461 36.1193C236.368 35.8222 238.321 36.0835 240.083 36.8716C241.845 37.6597 243.341 38.941 244.391 40.5608C245.441 42.1806 246 44.0697 246 46C246 46.5304 246.211 47.0391 246.586 47.4142C246.961 47.7893 247.47 48 248 48C248.53 48 249.039 47.7893 249.414 47.4142C249.789 47.0391 250 46.5304 250 46ZM237 28C235.22 28 233.48 27.4722 232 26.4832C230.52 25.4943 229.366 24.0887 228.685 22.4442C228.004 20.7996 227.826 18.99 228.173 17.2442C228.52 15.4984 229.377 13.8947 230.636 12.636C231.895 11.3774 233.498 10.5202 235.244 10.1729C236.99 9.82567 238.8 10.0039 240.444 10.6851C242.089 11.3663 243.494 12.5198 244.483 13.9999C245.472 15.4799 246 17.22 246 19C245.997 21.3861 245.048 23.6738 243.361 25.361C241.674 27.0483 239.386 27.9974 237 28ZM237 14C236.011 14 235.044 14.2932 234.222 14.8427C233.4 15.3921 232.759 16.173 232.381 17.0866C232.002 18.0002 231.903 19.0055 232.096 19.9755C232.289 20.9454 232.765 21.8363 233.464 22.5355C234.164 23.2348 235.055 23.711 236.025 23.9039C236.994 24.0969 238 23.9978 238.913 23.6194C239.827 23.241 240.608 22.6001 241.157 21.7779C241.707 20.9556 242 19.9889 242 19C242 17.6739 241.473 16.4022 240.536 15.4645C239.598 14.5268 238.326 14 237 14Z" fill="#063852"/>
</g>
<path d="M283.664 7.384C285.243 7.384 286.597 7.66133 287.728 8.216C288.859 8.74933 289.712 9.496 290.288 10.456C290.885 11.3947 291.184 12.4613 291.184 13.656C291.184 15.128 290.8 16.312 290.032 17.208C289.285 18.104 288.347 18.6693 287.216 18.904V19.064C290.139 20.0027 291.6 21.8267 291.6 24.536C291.6 25.8373 291.301 27 290.704 28.024C290.107 29.0267 289.232 29.816 288.08 30.392C286.949 30.9467 285.584 31.224 283.984 31.224C281.381 31.224 279.312 30.584 277.776 29.304C276.261 28.024 275.44 26.072 275.312 23.448H280.656C280.699 24.4507 280.976 25.24 281.488 25.816C282 26.392 282.747 26.68 283.728 26.68C284.517 26.68 285.136 26.4453 285.584 25.976C286.053 25.5067 286.288 24.8987 286.288 24.152C286.288 22.296 284.944 21.368 282.256 21.368H281.232V16.92H282.224C284.635 16.9627 285.84 16.0987 285.84 14.328C285.84 13.56 285.627 12.9733 285.2 12.568C284.795 12.1413 284.24 11.928 283.536 11.928C282.768 11.928 282.16 12.1947 281.712 12.728C281.264 13.24 281.008 13.9333 280.944 14.808H275.6C275.707 12.4187 276.453 10.584 277.84 9.304C279.227 8.024 281.168 7.384 283.664 7.384ZM294.399 19.448C294.399 22.9893 295.114 25.7947 296.543 27.864C297.972 29.9333 300.255 30.968 303.391 30.968C306.506 30.968 308.778 29.9333 310.207 27.864C311.658 25.7947 312.383 22.9893 312.383 19.448C312.383 15.928 311.658 13.144 310.207 11.096C308.778 9.02667 306.506 7.992 303.391 7.992C300.255 7.992 297.972 9.02667 296.543 11.096C295.114 13.144 294.399 15.928 294.399 19.448ZM306.943 19.448C306.943 21.4747 306.698 23.0427 306.207 24.152C305.738 25.24 304.799 25.784 303.391 25.784C301.962 25.784 301.002 25.24 300.511 24.152C300.02 23.0427 299.775 21.4747 299.775 19.448C299.775 17.4427 300.02 15.896 300.511 14.808C301.002 13.72 301.962 13.176 303.391 13.176C304.799 13.176 305.738 13.72 306.207 14.808C306.698 15.8747 306.943 17.4213 306.943 19.448ZM325.873 19.448L334.993 31H328.369L320.689 20.856V31H315.217V8.376H320.689V18.328L328.433 8.376H334.993L325.873 19.448ZM352.255 22.328H346.719V27.96H341.439V22.328H335.903V17.304H341.439V11.64H346.719V17.304H352.255V22.328Z" fill="#2374EE"/>
<path d="M277.76 45.1V53.96C277.76 55.0133 278.033 55.8067 278.58 56.34C279.14 56.8733 279.913 57.14 280.9 57.14C281.9 57.14 282.673 56.8733 283.22 56.34C283.78 55.8067 284.06 55.0133 284.06 53.96V45.1H286.34V53.92C286.34 55.0533 286.093 56.0133 285.6 56.8C285.107 57.5867 284.447 58.1733 283.62 58.56C282.793 58.9467 281.88 59.14 280.88 59.14C279.88 59.14 278.967 58.9467 278.14 58.56C277.327 58.1733 276.68 57.5867 276.2 56.8C275.72 56.0133 275.48 55.0533 275.48 53.92V45.1H277.76ZM293.209 59.18C292.342 59.18 291.562 59.0267 290.869 58.72C290.189 58.4 289.649 57.9733 289.249 57.44C288.849 56.8933 288.635 56.2867 288.609 55.62H290.969C291.009 56.0867 291.229 56.48 291.629 56.8C292.042 57.1067 292.555 57.26 293.169 57.26C293.809 57.26 294.302 57.14 294.649 56.9C295.009 56.6467 295.189 56.3267 295.189 55.94C295.189 55.5267 294.989 55.22 294.589 55.02C294.202 54.82 293.582 54.6 292.729 54.36C291.902 54.1333 291.229 53.9133 290.709 53.7C290.189 53.4867 289.735 53.16 289.349 52.72C288.975 52.28 288.789 51.7 288.789 50.98C288.789 50.3933 288.962 49.86 289.309 49.38C289.655 48.8867 290.149 48.5 290.789 48.22C291.442 47.94 292.189 47.8 293.029 47.8C294.282 47.8 295.289 48.12 296.049 48.76C296.822 49.3867 297.235 50.2467 297.289 51.34H295.009C294.969 50.8467 294.769 50.4533 294.409 50.16C294.049 49.8667 293.562 49.72 292.949 49.72C292.349 49.72 291.889 49.8333 291.569 50.06C291.249 50.2867 291.089 50.5867 291.089 50.96C291.089 51.2533 291.195 51.5 291.409 51.7C291.622 51.9 291.882 52.06 292.189 52.18C292.495 52.2867 292.949 52.4267 293.549 52.6C294.349 52.8133 295.002 53.0333 295.509 53.26C296.029 53.4733 296.475 53.7933 296.849 54.22C297.222 54.6467 297.415 55.2133 297.429 55.92C297.429 56.5467 297.255 57.1067 296.909 57.6C296.562 58.0933 296.069 58.48 295.429 58.76C294.802 59.04 294.062 59.18 293.209 59.18ZM309.892 53.22C309.892 53.6333 309.866 54.0067 309.812 54.34H301.392C301.459 55.22 301.786 55.9267 302.372 56.46C302.959 56.9933 303.679 57.26 304.532 57.26C305.759 57.26 306.626 56.7467 307.132 55.72H309.592C309.259 56.7333 308.652 57.5667 307.772 58.22C306.906 58.86 305.826 59.18 304.532 59.18C303.479 59.18 302.532 58.9467 301.692 58.48C300.866 58 300.212 57.3333 299.732 56.48C299.266 55.6133 299.032 54.6133 299.032 53.48C299.032 52.3467 299.259 51.3533 299.712 50.5C300.179 49.6333 300.826 48.9667 301.652 48.5C302.492 48.0333 303.452 47.8 304.532 47.8C305.572 47.8 306.499 48.0267 307.312 48.48C308.126 48.9333 308.759 49.5733 309.212 50.4C309.666 51.2133 309.892 52.1533 309.892 53.22ZM307.512 52.5C307.499 51.66 307.199 50.9867 306.612 50.48C306.026 49.9733 305.299 49.72 304.432 49.72C303.646 49.72 302.972 49.9733 302.412 50.48C301.852 50.9733 301.519 51.6467 301.412 52.5H307.512ZM314.316 49.58C314.649 49.02 315.089 48.5867 315.636 48.28C316.196 47.96 316.856 47.8 317.616 47.8V50.16H317.036C316.143 50.16 315.463 50.3867 314.996 50.84C314.543 51.2933 314.316 52.08 314.316 53.2V59H312.036V47.98H314.316V49.58ZM323.612 59.18C322.745 59.18 321.965 59.0267 321.272 58.72C320.592 58.4 320.052 57.9733 319.652 57.44C319.252 56.8933 319.038 56.2867 319.012 55.62H321.372C321.412 56.0867 321.632 56.48 322.032 56.8C322.445 57.1067 322.958 57.26 323.572 57.26C324.212 57.26 324.705 57.14 325.052 56.9C325.412 56.6467 325.592 56.3267 325.592 55.94C325.592 55.5267 325.392 55.22 324.992 55.02C324.605 54.82 323.985 54.6 323.132 54.36C322.305 54.1333 321.632 53.9133 321.112 53.7C320.592 53.4867 320.138 53.16 319.752 52.72C319.378 52.28 319.192 51.7 319.192 50.98C319.192 50.3933 319.365 49.86 319.712 49.38C320.058 48.8867 320.552 48.5 321.192 48.22C321.845 47.94 322.592 47.8 323.432 47.8C324.685 47.8 325.692 48.12 326.452 48.76C327.225 49.3867 327.638 50.2467 327.692 51.34H325.412C325.372 50.8467 325.172 50.4533 324.812 50.16C324.452 49.8667 323.965 49.72 323.352 49.72C322.752 49.72 322.292 49.8333 321.972 50.06C321.652 50.2867 321.492 50.5867 321.492 50.96C321.492 51.2533 321.598 51.5 321.812 51.7C322.025 51.9 322.285 52.06 322.592 52.18C322.898 52.2867 323.352 52.4267 323.952 52.6C324.752 52.8133 325.405 53.0333 325.912 53.26C326.432 53.4733 326.878 53.7933 327.252 54.22C327.625 54.6467 327.818 55.2133 327.832 55.92C327.832 56.5467 327.658 57.1067 327.312 57.6C326.965 58.0933 326.472 58.48 325.832 58.76C325.205 59.04 324.465 59.18 323.612 59.18Z" fill="#063852"/>
<g clip-path="url(#clip2_29495_3609)">
<path d="M412 38C412 38.5304 411.789 39.0391 411.414 39.4142C411.039 39.7893 410.53 40 410 40H408C407.47 40 406.961 39.7893 406.586 39.4142C406.211 39.0391 406 38.5304 406 38C406 37.4696 406.211 36.9609 406.586 36.5858C406.961 36.2107 407.47 36 408 36H410C410.53 36 411.039 36.2107 411.414 36.5858C411.789 36.9609 412 37.4696 412 38ZM420 36H418C417.47 36 416.961 36.2107 416.586 36.5858C416.211 36.9609 416 37.4696 416 38C416 38.5304 416.211 39.0391 416.586 39.4142C416.961 39.7893 417.47 40 418 40H420C420.53 40 421.039 39.7893 421.414 39.4142C421.789 39.0391 422 38.5304 422 38C422 37.4696 421.789 36.9609 421.414 36.5858C421.039 36.2107 420.53 36 420 36ZM410 44H408C407.47 44 406.961 44.2107 406.586 44.5858C406.211 44.9609 406 45.4696 406 46C406 46.5304 406.211 47.0391 406.586 47.4142C406.961 47.7893 407.47 48 408 48H410C410.53 48 411.039 47.7893 411.414 47.4142C411.789 47.0391 412 46.5304 412 46C412 45.4696 411.789 44.9609 411.414 44.5858C411.039 44.2107 410.53 44 410 44ZM420 44H418C417.47 44 416.961 44.2107 416.586 44.5858C416.211 44.9609 416 45.4696 416 46C416 46.5304 416.211 47.0391 416.586 47.4142C416.961 47.7893 417.47 48 418 48H420C420.53 48 421.039 47.7893 421.414 47.4142C421.789 47.0391 422 46.5304 422 46C422 45.4696 421.789 44.9609 421.414 44.5858C421.039 44.2107 420.53 44 420 44ZM410 20H408C407.47 20 406.961 20.2107 406.586 20.5858C406.211 20.9609 406 21.4696 406 22C406 22.5304 406.211 23.0391 406.586 23.4142C406.961 23.7893 407.47 24 408 24H410C410.53 24 411.039 23.7893 411.414 23.4142C411.789 23.0391 412 22.5304 412 22C412 21.4696 411.789 20.9609 411.414 20.5858C411.039 20.2107 410.53 20 410 20ZM420 20H418C417.47 20 416.961 20.2107 416.586 20.5858C416.211 20.9609 416 21.4696 416 22C416 22.5304 416.211 23.0391 416.586 23.4142C416.961 23.7893 417.47 24 418 24H420C420.53 24 421.039 23.7893 421.414 23.4142C421.789 23.0391 422 22.5304 422 22C422 21.4696 421.789 20.9609 421.414 20.5858C421.039 20.2107 420.53 20 420 20ZM410 28H408C407.47 28 406.961 28.2107 406.586 28.5858C406.211 28.9609 406 29.4696 406 30C406 30.5304 406.211 31.0391 406.586 31.4142C406.961 31.7893 407.47 32 408 32H410C410.53 32 411.039 31.7893 411.414 31.4142C411.789 31.0391 412 30.5304 412 30C412 29.4696 411.789 28.9609 411.414 28.5858C411.039 28.2107 410.53 28 410 28ZM420 28H418C417.47 28 416.961 28.2107 416.586 28.5858C416.211 28.9609 416 29.4696 416 30C416 30.5304 416.211 31.0391 416.586 31.4142C416.961 31.7893 417.47 32 418 32H420C420.53 32 421.039 31.7893 421.414 31.4142C421.789 31.0391 422 30.5304 422 30C422 29.4696 421.789 28.9609 421.414 28.5858C421.039 28.2107 420.53 28 420 28ZM446 30V48C445.997 50.6512 444.942 53.1929 443.068 55.0676C441.193 56.9422 438.651 57.9968 436 58H408C405.349 57.9968 402.807 56.9422 400.932 55.0676C399.058 53.1929 398.003 50.6512 398 48V20C398.003 17.3488 399.058 14.8071 400.932 12.9324C402.807 11.0578 405.349 10.0032 408 10H420C422.651 10.0032 425.193 11.0578 427.068 12.9324C428.942 14.8071 429.997 17.3488 430 20H436C438.651 20.0032 441.193 21.0578 443.068 22.9324C444.942 24.8071 445.997 27.3488 446 30ZM408 54H426V20C426 18.4087 425.368 16.8826 424.243 15.7574C423.117 14.6321 421.591 14 420 14H408C406.409 14 404.883 14.6321 403.757 15.7574C402.632 16.8826 402 18.4087 402 20V48C402 49.5913 402.632 51.1174 403.757 52.2426C404.883 53.3679 406.409 54 408 54ZM442 30C442 28.4087 441.368 26.8826 440.243 25.7574C439.117 24.6321 437.591 24 436 24H430V54H436C437.591 54 439.117 53.3679 440.243 52.2426C441.368 51.1174 442 49.5913 442 48V30ZM436 36C435.604 36 435.218 36.1173 434.889 36.3371C434.56 36.5568 434.304 36.8692 434.152 37.2346C434.001 37.6001 433.961 38.0022 434.038 38.3902C434.116 38.7781 434.306 39.1345 434.586 39.4142C434.865 39.6939 435.222 39.8844 435.61 39.9616C435.998 40.0387 436.4 39.9991 436.765 39.8478C437.131 39.6964 437.443 39.44 437.663 39.1111C437.883 38.7822 438 38.3956 438 38C438 37.4696 437.789 36.9609 437.414 36.5858C437.039 36.2107 436.53 36 436 36ZM436 44C435.604 44 435.218 44.1173 434.889 44.3371C434.56 44.5568 434.304 44.8692 434.152 45.2346C434.001 45.6001 433.961 46.0022 434.038 46.3902C434.116 46.7781 434.306 47.1345 434.586 47.4142C434.865 47.6939 435.222 47.8844 435.61 47.9616C435.998 48.0387 436.4 47.9991 436.765 47.8478C437.131 47.6964 437.443 47.44 437.663 47.1111C437.883 46.7822 438 46.3956 438 46C438 45.4696 437.789 44.9609 437.414 44.5858C437.039 44.2107 436.53 44 436 44ZM436 28C435.604 28 435.218 28.1173 434.889 28.3371C434.56 28.5568 434.304 28.8692 434.152 29.2346C434.001 29.6001 433.961 30.0022 434.038 30.3902C434.116 30.7781 434.306 31.1345 434.586 31.4142C434.865 31.6939 435.222 31.8844 435.61 31.9616C435.998 32.0387 436.4 31.9991 436.765 31.8478C437.131 31.6964 437.443 31.44 437.663 31.1111C437.883 30.7822 438 30.3956 438 30C438 29.4696 437.789 28.9609 437.414 28.5858C437.039 28.2107 436.53 28 436 28Z" fill="#063852"/>
</g>
<path d="M479.664 7.384C481.243 7.384 482.597 7.66133 483.728 8.216C484.859 8.74933 485.712 9.496 486.288 10.456C486.885 11.3947 487.184 12.4613 487.184 13.656C487.184 15.128 486.8 16.312 486.032 17.208C485.285 18.104 484.347 18.6693 483.216 18.904V19.064C486.139 20.0027 487.6 21.8267 487.6 24.536C487.6 25.8373 487.301 27 486.704 28.024C486.107 29.0267 485.232 29.816 484.08 30.392C482.949 30.9467 481.584 31.224 479.984 31.224C477.381 31.224 475.312 30.584 473.776 29.304C472.261 28.024 471.44 26.072 471.312 23.448H476.656C476.699 24.4507 476.976 25.24 477.488 25.816C478 26.392 478.747 26.68 479.728 26.68C480.517 26.68 481.136 26.4453 481.584 25.976C482.053 25.5067 482.288 24.8987 482.288 24.152C482.288 22.296 480.944 21.368 478.256 21.368H477.232V16.92H478.224C480.635 16.9627 481.84 16.0987 481.84 14.328C481.84 13.56 481.627 12.9733 481.2 12.568C480.795 12.1413 480.24 11.928 479.536 11.928C478.768 11.928 478.16 12.1947 477.712 12.728C477.264 13.24 477.008 13.9333 476.944 14.808H471.6C471.707 12.4187 472.453 10.584 473.84 9.304C475.227 8.024 477.168 7.384 479.664 7.384ZM490.463 26.84V22.264L500.799 8.088H506.687V22.072H509.407V26.84H506.687V31H501.151V26.84H490.463ZM501.599 14.424L496.031 22.072H501.599V14.424ZM527.387 22.328H521.851V27.96H516.571V22.328H511.035V17.304H516.571V11.64H521.851V17.304H527.387V22.328Z" fill="#2374EE"/>
<path d="M470.74 52.02C470.74 50.66 471.053 49.44 471.68 48.36C472.32 47.28 473.18 46.44 474.26 45.84C475.353 45.2267 476.547 44.92 477.84 44.92C479.32 44.92 480.633 45.2867 481.78 46.02C482.94 46.74 483.78 47.7667 484.3 49.1H481.56C481.2 48.3667 480.7 47.82 480.06 47.46C479.42 47.1 478.68 46.92 477.84 46.92C476.92 46.92 476.1 47.1267 475.38 47.54C474.66 47.9533 474.093 48.5467 473.68 49.32C473.28 50.0933 473.08 50.9933 473.08 52.02C473.08 53.0467 473.28 53.9467 473.68 54.72C474.093 55.4933 474.66 56.0933 475.38 56.52C476.1 56.9333 476.92 57.14 477.84 57.14C478.68 57.14 479.42 56.96 480.06 56.6C480.7 56.24 481.2 55.6933 481.56 54.96H484.3C483.78 56.2933 482.94 57.32 481.78 58.04C480.633 58.76 479.32 59.12 477.84 59.12C476.533 59.12 475.34 58.82 474.26 58.22C473.18 57.6067 472.32 56.76 471.68 55.68C471.053 54.6 470.74 53.38 470.74 52.02ZM488.029 46.52C487.615 46.52 487.269 46.38 486.989 46.1C486.709 45.82 486.569 45.4733 486.569 45.06C486.569 44.6467 486.709 44.3 486.989 44.02C487.269 43.74 487.615 43.6 488.029 43.6C488.429 43.6 488.769 43.74 489.049 44.02C489.329 44.3 489.469 44.6467 489.469 45.06C489.469 45.4733 489.329 45.82 489.049 46.1C488.769 46.38 488.429 46.52 488.029 46.52ZM489.149 47.98V59H486.869V47.98H489.149ZM494.702 49.84V55.94C494.702 56.3533 494.796 56.6533 494.982 56.84C495.182 57.0133 495.516 57.1 495.982 57.1H497.382V59H495.582C494.556 59 493.769 58.76 493.222 58.28C492.676 57.8 492.402 57.02 492.402 55.94V49.84H491.102V47.98H492.402V45.24H494.702V47.98H497.382V49.84H494.702ZM500.544 46.52C500.13 46.52 499.784 46.38 499.504 46.1C499.224 45.82 499.084 45.4733 499.084 45.06C499.084 44.6467 499.224 44.3 499.504 44.02C499.784 43.74 500.13 43.6 500.544 43.6C500.944 43.6 501.284 43.74 501.564 44.02C501.844 44.3 501.984 44.6467 501.984 45.06C501.984 45.4733 501.844 45.82 501.564 46.1C501.284 46.38 500.944 46.52 500.544 46.52ZM501.664 47.98V59H499.384V47.98H501.664ZM514.657 53.22C514.657 53.6333 514.63 54.0067 514.577 54.34H506.157C506.224 55.22 506.55 55.9267 507.137 56.46C507.724 56.9933 508.444 57.26 509.297 57.26C510.524 57.26 511.39 56.7467 511.897 55.72H514.357C514.024 56.7333 513.417 57.5667 512.537 58.22C511.67 58.86 510.59 59.18 509.297 59.18C508.244 59.18 507.297 58.9467 506.457 58.48C505.63 58 504.977 57.3333 504.497 56.48C504.03 55.6133 503.797 54.6133 503.797 53.48C503.797 52.3467 504.024 51.3533 504.477 50.5C504.944 49.6333 505.59 48.9667 506.417 48.5C507.257 48.0333 508.217 47.8 509.297 47.8C510.337 47.8 511.264 48.0267 512.077 48.48C512.89 48.9333 513.524 49.5733 513.977 50.4C514.43 51.2133 514.657 52.1533 514.657 53.22ZM512.277 52.5C512.264 51.66 511.964 50.9867 511.377 50.48C510.79 49.9733 510.064 49.72 509.197 49.72C508.41 49.72 507.737 49.9733 507.177 50.48C506.617 50.9733 506.284 51.6467 506.177 52.5H512.277ZM520.801 59.18C519.934 59.18 519.154 59.0267 518.461 58.72C517.781 58.4 517.241 57.9733 516.841 57.44C516.441 56.8933 516.227 56.2867 516.201 55.62H518.561C518.601 56.0867 518.821 56.48 519.221 56.8C519.634 57.1067 520.147 57.26 520.761 57.26C521.401 57.26 521.894 57.14 522.241 56.9C522.601 56.6467 522.781 56.3267 522.781 55.94C522.781 55.5267 522.581 55.22 522.181 55.02C521.794 54.82 521.174 54.6 520.321 54.36C519.494 54.1333 518.821 53.9133 518.301 53.7C517.781 53.4867 517.327 53.16 516.941 52.72C516.567 52.28 516.381 51.7 516.381 50.98C516.381 50.3933 516.554 49.86 516.901 49.38C517.247 48.8867 517.741 48.5 518.381 48.22C519.034 47.94 519.781 47.8 520.621 47.8C521.874 47.8 522.881 48.12 523.641 48.76C524.414 49.3867 524.827 50.2467 524.881 51.34H522.601C522.561 50.8467 522.361 50.4533 522.001 50.16C521.641 49.8667 521.154 49.72 520.541 49.72C519.941 49.72 519.481 49.8333 519.161 50.06C518.841 50.2867 518.681 50.5867 518.681 50.96C518.681 51.2533 518.787 51.5 519.001 51.7C519.214 51.9 519.474 52.06 519.781 52.18C520.087 52.2867 520.541 52.4267 521.141 52.6C521.941 52.8133 522.594 53.0333 523.101 53.26C523.621 53.4733 524.067 53.7933 524.441 54.22C524.814 54.6467 525.007 55.2133 525.021 55.92C525.021 56.5467 524.847 57.1067 524.501 57.6C524.154 58.0933 523.661 58.48 523.021 58.76C522.394 59.04 521.654 59.18 520.801 59.18Z" fill="#063852"/>
<defs>
<clipPath id="clip0_29495_3609">
<rect width="48" height="48" fill="white" transform="translate(0 10)"/>
</clipPath>
<clipPath id="clip1_29495_3609">
<rect width="48" height="48" fill="white" transform="translate(202 10)"/>
</clipPath>
<clipPath id="clip2_29495_3609">
<rect width="48" height="48" fill="white" transform="translate(398 10)"/>
</clipPath>
</defs>
</svg>
