<svg width="24" height="24" viewBox="0 0 24 24" fill="none" xmlns="http://www.w3.org/2000/svg">
<path d="M12.3462 7.28233L12.3461 7.28224C12.0187 7.03822 11.631 6.89107 11.226 6.85742C10.821 6.82377 10.4149 6.90498 10.0527 7.09184C9.69059 7.27869 9.38673 7.56378 9.17458 7.91518C8.96244 8.26656 8.85017 8.67065 8.85 9.08266V9.08272V14.9168V14.9168C8.85007 15.329 8.96234 15.7333 9.17459 16.0848C9.38684 16.4364 9.69087 16.7216 10.0532 16.9084C10.4156 17.0953 10.8219 17.1764 11.2271 17.1425C11.6323 17.1086 12.0201 16.9612 12.3474 16.7168L12.3475 16.7168L16.2532 13.7997C16.2532 13.7997 16.2533 13.7997 16.2533 13.7997C16.5315 13.592 16.7575 13.3207 16.9132 13.008C17.0689 12.6952 17.15 12.3497 17.15 11.9993C17.15 11.649 17.0689 11.3034 16.9132 10.9907C16.7575 10.6779 16.5315 10.4066 16.2532 10.1989L16.19 10.1517L16.1888 10.1521L12.3462 7.28233ZM15.5878 12.8872L11.6822 15.804C11.6821 15.8041 11.6821 15.8042 11.682 15.8042C11.5214 15.9236 11.3317 15.9953 11.134 16.0116C10.9363 16.0279 10.7378 15.9883 10.5605 15.8968C10.3832 15.8053 10.2339 15.6655 10.1293 15.4925C10.0248 15.3195 9.96913 15.1202 9.96883 14.9167V9.08272H9.96883L9.96882 9.08125C9.96682 8.87779 10.0213 8.67805 10.1257 8.50502C10.2301 8.33201 10.3801 8.19287 10.5581 8.10323L10.5581 8.10324L10.5596 8.10246C10.7115 8.02384 10.8792 7.98282 11.0493 7.98257C11.2768 7.98353 11.4982 8.05872 11.681 8.1975L11.681 8.1975L11.682 8.1982L15.5877 11.1152C15.5877 11.1152 15.5878 11.1152 15.5878 11.1152C15.7242 11.2172 15.8353 11.3506 15.912 11.5048C15.9887 11.659 16.0288 11.8296 16.0288 12.0027C16.0288 12.1758 15.9887 12.3464 15.912 12.5006C15.8459 12.6334 15.7543 12.7509 15.6429 12.846L15.5878 12.8872Z" fill="#063852" stroke="#063852" stroke-width="0.3"/>
<rect x="0.8" y="0.8" width="22.4" height="22.4" rx="11.2" stroke="#063852" stroke-width="1.6"/>
</svg>
